HIERARCHY
ROOT Hips
{
	OFFSET -42.198200 91.614723 -40.067841
	CHANNELS 6 Xposition Yposition Zposition Zrotation Yrotation Xrotation 
	JOINT LeftUpLeg
	{
		OFFSET 0.103456 1.857829 10.548506
		CHANNELS 3 Zrotation Yrotation Xrotation
		JOINT LeftLeg
		{
			OFFSET 43.499992 -0.000038 -0.000002
			CHANNELS 3 Zrotation Yrotation Xrotation
			JOINT LeftFoot
			{
				OFFSET 42.372192 0.000015 -0.000007
				CHANNELS 3 Zrotation Yrotation Xrotation
				JOINT LeftToe
				{
					OFFSET 17.299999 -0.000002 0.000003
					CHANNELS 3 Zrotation Yrotation Xrotation
					End Site
					{
						OFFSET 0.000000 0.000000 0.000000
					}
				}
			}
		}
	}
	JOINT RightUpLeg
	{
		OFFSET 0.103457 1.857829 -10.548503
		CHANNELS 3 Zrotation Yrotation Xrotation
		JOINT RightLeg
		{
			OFFSET 43.500042 -0.000027 0.000008
			CHANNELS 3 Zrotation Yrotation Xrotation
			JOINT RightFoot
			{
				OFFSET 42.372257 -0.000008 0.000014
				CHANNELS 3 Zrotation Yrotation Xrotation
				JOINT RightToe
				{
					OFFSET 17.299992 -0.000005 0.000004
					CHANNELS 3 Zrotation Yrotation Xrotation
					End Site
					{
						OFFSET 0.000000 0.000000 0.000000
					}
				}
			}
		}
	}
	JOINT Spine
	{
		OFFSET 6.901968 -2.603733 -0.000001
		CHANNELS 3 Zrotation Yrotation Xrotation
		JOINT Spine1
		{
			OFFSET 12.588099 0.000002 0.000000
			CHANNELS 3 Zrotation Yrotation Xrotation
			JOINT Spine2
			{
				OFFSET 12.343206 0.000000 -0.000001
				CHANNELS 3 Zrotation Yrotation Xrotation
				JOINT Neck
				{
					OFFSET 25.832886 -0.000004 0.000003
					CHANNELS 3 Zrotation Yrotation Xrotation
					JOINT Head
					{
						OFFSET 11.766620 0.000005 -0.000001
						CHANNELS 3 Zrotation Yrotation Xrotation
						End Site
						{
							OFFSET 0.000000 0.000000 0.000000
						}
					}
				}
				JOINT LeftShoulder
				{
					OFFSET 19.745899 -1.480370 6.000108
					CHANNELS 3 Zrotation Yrotation Xrotation
					JOINT LeftArm
					{
						OFFSET 11.284125 -0.000009 -0.000018
						CHANNELS 3 Zrotation Yrotation Xrotation
						JOINT LeftForeArm
						{
							OFFSET 33.000050 0.000004 0.000032
							CHANNELS 3 Zrotation Yrotation Xrotation
							JOINT LeftHand
							{
								OFFSET 25.200008 0.000015 0.000008
								CHANNELS 3 Zrotation Yrotation Xrotation
								End Site
								{
									OFFSET 0.000000 0.000000 0.000000
								}
							}
						}
					}
				}
				JOINT RightShoulder
				{
					OFFSET 19.746099 -1.480375 -6.000073
					CHANNELS 3 Zrotation Yrotation Xrotation
					JOINT RightArm
					{
						OFFSET 11.284138 -0.000015 -0.000012
						CHANNELS 3 Zrotation Yrotation Xrotation
						JOINT RightForeArm
						{
							OFFSET 33.000092 0.000017 0.000013
							CHANNELS 3 Zrotation Yrotation Xrotation
							JOINT RightHand
							{
								OFFSET 25.199780 0.000135 0.000422
								CHANNELS 3 Zrotation Yrotation Xrotation
								End Site
								{
									OFFSET 0.000000 0.000000 0.000000
								}
							}
						}
					}
				}
			}
		}
	}
}
MOTION
Frames: 8
Frame Time: 0.033333
-133.822296 87.235542 233.183502 85.118828 0.6503999999999989 -130.863597 149.513783 4.893499 173.953375 -32.841056 2.205601000000001 -6.116297 81.22927500000002 4.149709999999997 -0.5944779999999994 21.454557999999995 0.003106 1.7999999999999865e-05 176.97169 8.315306000000001 -167.200312 -55.006023 -2.6706660000000007 -1.5833439999999999 72.45861500000001 2.9982770000000003 5.658530000000002 21.454558000000002 -0.0030970000000000004 1.0000000000000148e-06 7.436141000000003 -1.1386640000000003 1.1818880000000005 4.836893 -2.325283999999999 2.315986 4.51879 -2.3114099999999995 2.329979 7.344449000000001 -12.378786 -3.2125090000000003 -27.379142999999996 6.242848000000001 -8.315889999999998 -176.783833 -78.06507999999994 -4.732375999999992 8.587222999999994 62.808323000000016 18.895934999999994 -27.850336999999996 -8.595849999999999 0.8014609999999998 8.806148 0.24252800000000005 13.399833000000001 -161.95379799999995 83.62837199999987 19.815804999999987 -28.697293 -58.111004 -22.354437000000008 -43.702173 22.170868999999996 -2.0317549999999995 9.302037999999996 1.8172379999999992 -14.058323999999997
-131.8255 87.913239 230.682098 84.95868800000001 0.6098380000000049 -131.167499 152.13624799999997 4.874206999999999 172.384754 -31.98637400000001 2.6133970000000004 -5.344258 83.020881 3.5840819999999995 -0.6282959999999993 21.454558000000002 0.0031080000000000005 1.6999999999999895e-05 170.82038099999997 9.133197 -170.146979 -65.125922 -1.8737760000000003 0.5032209999999999 68.54389199999999 1.6816630000000004 5.572884999999999 21.454551 -0.003085000000000001 9.999999999998782e-07 7.4284740000000005 -1.203122 0.9441350000000002 4.825597000000003 -2.444182000000001 1.838071000000001 4.507361000000002 -2.433184 1.8527949999999997 7.068835000000001 -12.203373000000001 -2.6398700000000006 -26.654571000000004 6.356554999999999 -7.7074469999999975 -175.872645 -78.01578699999999 -5.660511999999999 7.517026999999998 62.366839999999996 18.964595999999997 -29.692197999999994 -8.686784999999997 0.8407260000000003 8.344476000000004 0.4122280000000003 14.474195 -160.49328499999996 83.58536900000001 21.291722999999955 -27.464879000000007 -58.77166000000001 -24.262808999999997 -41.90421500000001 21.403923 -1.9287919999999996 10.220043 0.1200720000000002 -14.960344
-129.794495 88.526031 228.249802 84.88337800000001 0.5643419999999953 -131.52650800000004 154.857204 4.831304 172.16001300000002 -31.003187999999998 2.4232889999999996 -5.265439 84.566635 3.4572859999999994 -0.9470289999999997 21.454557999999995 0.003106 1.599999999999992e-05 165.044951 9.591093999999996 -171.317414 -72.23845100000003 -1.7867889999999997 1.8959690000000002 71.62025699999998 0.6443709999999998 5.928114999999999 21.454550000000005 -0.0030900000000000003 -2.000000000000037e-06 7.429183 -1.24191 0.709948 4.831684999999999 -2.512085 1.3681509999999997 4.513356 -2.503919 1.383293 6.851895 -11.803700000000001 -2.1220490000000005 -26.065631000000003 6.3943400000000015 -7.089808 -175.56035499999996 -77.92818999999993 -5.977804999999992 5.879469 61.69593099999997 18.578763 -31.69525700000001 -8.870958999999997 0.8918080000000002 7.603998999999997 0.12893600000000013 14.823519000000003 -159.955667 83.317277 21.838534 -25.870772000000002 -59.154896000000015 -26.61027900000001 -40.277738 20.731151999999998 -1.8393739999999987 11.05701 -0.9440500000000003 -15.292691000000001
-127.659401 89.171181 225.871597 85.08757300000002 0.8167710000000019 -131.699093 157.671256 4.544094999999999 173.019292 -29.733036 2.026952 -5.598599999999999 85.75017 3.589218 -1.455557 21.45455799999999 0.0031039999999999996 1.7999999999999984e-05 159.46318300000001 9.551692999999998 -171.062484 -75.784904 -2.013371 2.920249 72.87905400000001 -0.415756 5.068241000000001 21.454558000000002 -0.0030970000000000004 -1.0000000000000148e-06 7.417776000000001 -1.159591 0.4788280000000001 4.814388999999999 -2.337887 0.9095620000000001 4.496060000000001 -2.332481 0.92366 6.694515999999998 -11.029301999999994 -1.6731719999999999 -25.654796999999995 6.164275999999998 -6.369340999999999 -176.309094 -78.00681199999993 -5.2154969999999965 3.9306749999999977 61.45274899999999 17.339843999999992 -33.58876000000001 -9.387886 0.9653100000000004 7.1254420000000005 -0.35884499999999975 14.525944000000003 -157.49104800000006 83.13670100000016 24.332597000000067 -23.973537000000004 -59.60439699999999 -29.091886000000006 -38.89389100000002 20.095935 -1.7609329999999992 11.480835999999996 -1.63241 -14.833244999999996
-125.346901 89.692833 223.503494 85.35520099999998 1.059009000000001 -131.81569799999997 160.60638000000003 4.174893999999999 173.009375 -28.399527 2.142577 -5.4889209999999995 86.95825300000001 3.3856160000000006 -2.113151 21.454556999999994 0.003111 1.7000000000000057e-05 154.5237 9.3485 -170.396049 -76.08373099999996 -2.2361739999999997 3.6978229999999987 73.62756799999998 -0.6998520000000004 6.033066 21.454551000000002 -0.003093 0.0 7.390377000000003 -1.0596140000000003 0.25219400000000003 4.764442000000001 -2.128580000000001 0.46098900000000015 4.446115000000002 -2.1258909999999998 0.47383300000000006 6.795842000000003 -10.074363 -1.3944000000000005 -25.264600000000005 5.887379 -5.756020000000001 -177.969431 -78.29630300000002 -3.5276130000000037 1.9356109999999984 61.39694599999999 15.583528999999997 -35.257344 -9.802021999999997 1.0294529999999997 6.50158 -1.3753500000000003 14.060510000000003 -156.1261580000001 82.91664600000007 25.71676399999998 -21.316964000000002 -59.96917000000002 -31.605935000000017 -37.716905999999994 19.25232099999999 -1.6757770000000003 11.410656999999999 -1.8238890000000005 -13.297052999999996
-122.909897 89.961662 221.114899 85.51036199999997 1.1700889999999993 -131.924298 163.514865 3.7936949999999996 172.567543 -27.291163 2.19874 -5.160399000000001 88.441941 3.0580199999999995 -2.728888000000001 21.454557 0.0031080000000000005 1.6999999999999993e-05 150.328133 9.174495999999998 -169.656845 -73.431056 -2.235811 3.9211660000000004 74.80623300000002 -0.9664350000000006 5.897353000000002 21.454541000000003 -0.003089000000000001 0.0 7.356116999999998 -0.980516 0.03329999999999998 4.69983 -1.961513 0.027083999999999987 4.381529 -1.961448 0.038929 6.962163999999999 -9.303542999999998 -1.19972 -25.113943 5.816123 -5.368471 -179.910803 -78.66841100000006 -1.557009000000002 -0.2522729999999981 61.29056599999999 13.600580999999996 -36.77700999999998 -10.022035999999996 1.0792099999999993 5.872134000000001 -2.275593999999999 13.365467999999998 -155.66312600000003 82.68962400000008 26.189599000000044 -18.09006500000001 -60.25383200000004 -34.35428700000003 -36.80889700000001 18.827943999999995 -1.6256409999999994 11.293690000000002 -2.0865149999999995 -12.244973999999997
-120.415802 89.958321 218.636307 85.22111 1.1175290000000018 -131.968503 166.23090399999998 3.936395000000001 172.043996 -26.311551999999995 2.3850389999999995 -4.8487079999999985 90.063605 2.756269 -3.394912000000001 21.454559999999997 0.0031030000000000003 1.600000000000005e-05 146.77721400000001 9.368894000000001 -169.515064 -68.271491 -1.826119 3.610188 75.782274 -0.7766189999999997 6.033886999999999 21.454553000000008 -0.0030920000000000014 -9.999999999998636e-07 7.272084 -0.984902 -0.20093600000000003 4.535708 -1.9611909999999988 -0.44005 4.217432 -1.9639479999999996 -0.4281960000000001 6.854393 -8.725918000000002 -1.0829190000000004 -24.973574000000006 5.825489000000001 -5.154756000000001 178.784668 -79.07561999999994 -0.23751099999999992 -2.687514000000001 61.03761 11.637088999999994 -38.22862299999999 -10.166779999999997 1.123912 5.270827000000001 -2.986848999999999 12.552598 -154.59931 82.37704699999998 27.272694000000016 -14.279323999999999 -60.421478999999984 -36.90560200000001 -36.605689000000005 18.570930999999998 -1.6040240000000008 11.458992 -2.451063000000001 -12.297027
-117.753998 89.764648 216.082001 85.04017900000001 0.9776699999999959 -131.87529800000002 169.096428 4.00369 171.67339000000004 -25.532211999999994 2.4988179999999995 -4.535334 91.80267400000001 2.4826270000000004 -4.057495 21.454560000000004 0.0031130000000000003 1.7000000000000064e-05 144.598574 9.274512999999999 -169.583926 -60.61359899999999 -1.3198019999999997 3.651686 76.34223300000001 -0.7140340000000013 6.554305000000002 21.454557 -0.0030940000000000004 -1.0000000000000006e-06 7.2107779999999995 -0.972254 -0.4415009999999999 4.417052000000001 -1.9270569999999996 -0.9195669999999998 4.098814 -1.9327139999999992 -0.907911 6.593225 -8.133409000000002 -0.957742 -24.698203 5.8736250000000005 -4.948079 177.736808 -79.48595799999998 0.8190079999999997 -5.251790000000001 60.70095700000001 9.507459 -39.65030700000002 -10.281999000000003 1.1672980000000004 4.863002999999999 -3.2694459999999985 12.460350999999994 -152.96726399999997 82.10456999999997 28.930976999999995 -10.743918999999995 -60.528283 -39.64390400000001 -36.388267 18.625125000000004 -1.602241 11.617869 -2.63663 -11.739062
